# xmcd
#
# Track frame offsets:
#	150
#	13979
#	32014
#	49982
#	65705
#	84629
#	99963
#	117431
#	134357
#	148294
#	165017
#	181576
#	199910
#	217105
#	234584
#	249645
#	268802
#	285222
#	300837
#	316602
#
# Disc length: 4411 seconds
#
# Revision: 1
# Processed by: cddbd v1.5.2PL0 Copyright (c) Steve Scherf et al.
# Submitted via: EasyCDDAExtractor 11.5.0.1
#
DISCID=19113914
DTITLE=Various Artist - NCT 049
DYEAR=2003
DGENRE=Country
TTITLE0=Faith Hill - You're Still Here
TTITLE1=Brooks and Dunn - Red Dirt Road
TTITLE2=Rhett Akins - In Your Love
TTITLE3=Kenny Chesney - No Shoes, No Shirt, No Problems
TTITLE4=Tim McGraw - Real Good Man
TTITLE5=Rushlow - I Can't Be Your Friend
TTITLE6=Brad Martin - One Of Those Days
TTITLE7=Clay Walker - A Few Questions
TTITLE8=Rachel Proctor - Days Like This
TTITLE9=Billy Currington - Walk A Little Straighter
TTITLE10=Chad Brock - A Woman Thing
TTITLE11=Chalee Tennison - Easy Lovin' You
TTITLE12=Charlie Robison - Walter
TTITLE13=Clint Daniels - The Letter (Almost Home)
TTITLE14=Kevin Fowler - Senorita Mas Fina
TTITLE15=Radney Foster ft. Roger Creager - Luckenbach Texas
TTITLE16=Joanie Keller - If Heartaches Had Wings
TTITLE17=Lee Greenwood - God Bless The USA 2003
TTITLE18=Deana Carter - I'm Just A Girl
TTITLE19=Kenny Rogers - I'm Missing You
EXTD=
EXTT0=
EXTT1=
EXTT2=
EXTT3=
EXTT4=
EXTT5=
EXTT6=
EXTT7=
EXTT8=
EXTT9=
EXTT10=
EXTT11=
EXTT12=
EXTT13=
EXTT14=
EXTT15=
EXTT16=
EXTT17=
EXTT18=
EXTT19=
PLAYORDER=
